# xmcd CD database file
#
# Track frame offsets:
#	150
#	9657
#	25865
#	36647
#	50615
#	64325
#	77300
#	89725
#	101947
#	119222
#	132527
#	148105
#
# Disc length: 2137 seconds
#
# Revision: 2
# Processed by: cddbd v1.5.2PL0 Copyright (c) Steve Scherf et al.
# Submitted via: CDex 1.51
#
DISCID=b908570c
DTITLE=Various Artist - Country Gospel
DYEAR=1999
DGENRE=Gospel
TTITLE0=Ray Price - Amazing Grace
TTITLE1=Jim Ed Brown - Whispring Hope
TTITLE2=Ferlin Husky - Wings Of A dove
TTITLE3=Jeannie Sealy - One Day At A Time
TTITLE4=Bobby Helms - What A Friend We Have In Jesus
TTITLE5=David Houston - In The Garden
TTITLE6=Johnny Russell - Just A Closer Walk With Thee
TTITLE7=Lee Greenwood - You'll Never Walk Alone
TTITLE8=Skeeter Davis - Oh Happy Day
TTITLE9=Lacy J. Dalton - Life's Railroad To Heaven
TTITLE10=Jack Greene - Why Me (Lord)
TTITLE11=The Jordanaires - Will The Circle Be Unbroken
EXTD=YEAR: 1999
EXTT0=
EXTT1=
EXTT2=
EXTT3=
EXTT4=
EXTT5=
EXTT6=
EXTT7=
EXTT8=
EXTT9=
EXTT10=
EXTT11=
PLAYORDER=
